<svg width="22" height="22" viewBox="0 0 22 22" fill="none" xmlns="http://www.w3.org/2000/svg">
<path d="M2.5998 22V20.5H19.3998V22H2.5998ZM2.5998 1.5V0H19.3998V1.5H2.5998ZM10.9998 11.9C11.8331 11.9 12.5331 11.6167 13.0998 11.05C13.6665 10.4833 13.9498 9.78333 13.9498 8.95C13.9498 8.11667 13.6665 7.41667 13.0998 6.85C12.5331 6.28333 11.8331 6 10.9998 6C10.1665 6 9.46647 6.28333 8.89981 6.85C8.33314 7.41667 8.04981 8.11667 8.04981 8.95C8.04981 9.78333 8.33314 10.4833 8.89981 11.05C9.46647 11.6167 10.1665 11.9 10.9998 11.9ZM2.2998 19C1.8998 19 1.5498 18.85 1.2498 18.55C0.949805 18.25 0.799805 17.9 0.799805 17.5V4.5C0.799805 4.06667 0.949805 3.70833 1.2498 3.425C1.5498 3.14167 1.8998 3 2.2998 3H19.6998C20.0998 3 20.4498 3.15 20.7498 3.45C21.0498 3.75 21.1998 4.1 21.1998 4.5V17.5C21.1998 17.9 21.0498 18.25 20.7498 18.55C20.4498 18.85 20.0998 19 19.6998 19H2.2998ZM4.49981 17.5C5.34981 16.45 6.35814 15.6625 7.52481 15.1375C8.69147 14.6125 9.84981 14.35 10.9998 14.35C12.1331 14.35 13.2956 14.6125 14.4873 15.1375C15.679 15.6625 16.6831 16.45 17.4998 17.5H19.6998V4.5H2.2998V17.5H4.49981ZM6.84981 17.5H15.1998C14.6831 17 14.079 16.6 13.3873 16.3C12.6956 16 11.8998 15.85 10.9998 15.85C10.0998 15.85 9.31231 16 8.63731 16.3C7.96231 16.6 7.36647 17 6.84981 17.5ZM10.9998 10.4C10.5998 10.4 10.2623 10.2583 9.98731 9.975C9.71231 9.69167 9.57481 9.35 9.57481 8.95C9.57481 8.55 9.71231 8.20833 9.98731 7.925C10.2623 7.64167 10.5998 7.5 10.9998 7.5C11.3998 7.5 11.7373 7.64167 12.0123 7.925C12.2873 8.20833 12.4248 8.55 12.4248 8.95C12.4248 9.35 12.2873 9.69167 12.0123 9.975C11.7373 10.2583 11.3998 10.4 10.9998 10.4Z" fill="#181818"/>
</svg>
